<svg width="20" height="20" viewBox="0 0 20 20" fill="none" xmlns="http://www.w3.org/2000/svg">
<g id="warning_black_24dp 1">
<path id="Vector" d="M3.72506 17.5H16.2751C17.5584 17.5 18.3584 16.1083 17.7167 15L11.4417 4.15834C10.8001 3.05 9.20006 3.05 8.55839 4.15834L2.28339 15C1.64173 16.1083 2.44173 17.5 3.72506 17.5ZM10.0001 11.6667C9.54173 11.6667 9.16673 11.2917 9.16673 10.8333V9.16667C9.16673 8.70834 9.54173 8.33334 10.0001 8.33334C10.4584 8.33334 10.8334 8.70834 10.8334 9.16667V10.8333C10.8334 11.2917 10.4584 11.6667 10.0001 11.6667ZM10.8334 15H9.16673V13.3333H10.8334V15Z" fill="#D14B35"/>
</g>
</svg>
